<svg id="Layer_1" data-name="Layer 1" xmlns="http://www.w3.org/2000/svg" xmlns:xlink="http://www.w3.org/1999/xlink" viewBox="0 0 26 26"><defs><linearGradient id="linear-gradient" x1="5.33" y1="13" x2="13" y2="13" gradientUnits="userSpaceOnUse"><stop offset="0" stop-color="#6cc5b1"/><stop offset="1" stop-color="#4a8d7d"/></linearGradient><linearGradient id="linear-gradient-2" x1="18.08" y1="13" x2="25.66" y2="13" xlink:href="#linear-gradient"/></defs><title>ws-slide-logo</title><path d="M6.09,5.8H.34L.81,8.13h2.1v.62h-2l.49,2.42H3.87v.62H1.54L2,14.21h2.8v.62H2.15l.48,2.42H5.8v.62h-3l.17.83a1.86,1.86,0,0,0,1.83,1.5h5.75L7.92,7.3A1.86,1.86,0,0,0,6.09,5.8Z" fill="#17252e"/><polygon points="10.51 5.8 8.21 5.8 5.33 20.2 12.61 20.2 13 18.23 10.51 5.8" fill="url(#linear-gradient)"/><path d="M18.38,5.8l-.3,1.49h0l2.58,12.9h2.1L25.66,5.8Z" fill="url(#linear-gradient-2)"/><path d="M18.09,7.3a1.88,1.88,0,0,0-1.84-1.5H10.51l2.58,12.9a1.88,1.88,0,0,0,1.84,1.5h5.74ZM16.4,19.89A2.94,2.94,0,1,1,19.34,17,2.94,2.94,0,0,1,16.4,19.89Z" fill="#17252e"/><path d="M16.4,14.2A2.76,2.76,0,1,0,19.15,17,2.76,2.76,0,0,0,16.4,14.2Zm1.68,2.68c-.19,0-.27-.16-.25-.41a.53.53,0,0,1,.17-.33.46.46,0,0,1,.26-.13.28.28,0,0,1,.15,0s.05.07,0,.14-.09.21-.25.31a.26.26,0,0,0,.11-.25s0,0-.09,0-.27.09-.27.28a.18.18,0,0,0,.06.14.14.14,0,0,0,.1.06.52.52,0,0,0,.38-.17.6.6,0,0,0,.16-.41c0-.16-.1-.24-.28-.24-.43,0-.75.36-1,1.07a6.85,6.85,0,0,0-.22,1.87c0,.15,0,.29,0,.42l-.07.07a2.14,2.14,0,0,1-.42-.26,1.68,1.68,0,0,1-.6-.8l-.52,1-.17-.14a7.25,7.25,0,0,0-.81-2.85,1.13,1.13,0,0,1-.38-.12Q14,16,14,15.87a.3.3,0,0,1,.15-.25.73.73,0,0,1,.71-.07c.12,0,.19.12.19.21a.22.22,0,0,1-.14.19.49.49,0,0,1-.25.08c-.19,0-.29-.06-.29-.17s.06-.16.19-.16a.16.16,0,0,1,.12,0c-.14,0-.2,0-.19.1s.06.06.17.06a.19.19,0,0,0,.11,0,.11.11,0,0,0,.06-.1s0-.09-.1-.13a.31.31,0,0,0-.19,0c-.2,0-.31.11-.31.27s.06.14.17.19a.75.75,0,0,0,.31.06,1.71,1.71,0,0,0,.86-.28l.07.09a1.56,1.56,0,0,1-.43.21,7.1,7.1,0,0,1,.28,1,8.14,8.14,0,0,1,.22,1.49l.59-1.11h.14a2.4,2.4,0,0,0,.09.48,1.76,1.76,0,0,0,.51.84,6.36,6.36,0,0,1,.27-2c.24-.76.6-1.15,1.06-1.15a.32.32,0,0,1,.27.13.44.44,0,0,1,.11.29.83.83,0,0,1-.22.57A.56.56,0,0,1,18.08,16.88Z" fill="#17252e"/></svg>